<svg width="34" height="41" fill="none" xmlns="http://www.w3.org/2000/svg"><mask id="b" mask-type="alpha" maskUnits="userSpaceOnUse" x="0" y="0" width="34" height="40"><path opacity=".95" d="M0 13.977a4 4 0 0 1 1.57-3.178l13-9.94a4 4 0 0 1 4.86 0l13 9.94A4 4 0 0 1 34 13.977v12.046a4 4 0 0 1-1.57 3.178l-13 9.94a4 4 0 0 1-4.86 0l-13-9.94A4 4 0 0 1 0 26.023V13.977z" fill="url(#a)" fill-opacity=".95"/></mask><g mask="url(#b)"><g filter="url(#c)"><path d="M0 12 17-1l17 13v16L17 41 0 28V12z" fill="url(#d)" fill-opacity=".9"/></g><g filter="url(#e)"><path d="M34 27.012V12.988a2 2 0 0 0-.785-1.588L17-1v42l16.215-12.4A2 2 0 0 0 34 27.012z" fill="url(#f)" fill-opacity=".9"/></g><g filter="url(#g)"><path d="M17-1 0 12l14.57 11.142a4 4 0 0 0 4.86 0L34 12 17-1z" fill="url(#h)" fill-opacity=".9"/></g></g><defs><radialGradient id="a" cx="0" cy="0" r="1" gradientUnits="userSpaceOnUse" gradientTransform="rotate(-113.885 20.572 3.933) scale(82.2113 2670.94)"><stop/><stop offset="0" stop-color="#231600"/><stop offset="1" stop-color="#705C5E"/></radialGradient><radialGradient id="d" cx="0" cy="0" r="1" gradientUnits="userSpaceOnUse" gradientTransform="rotate(-113.885 20.572 3.933) scale(82.2113 2670.94)"><stop/><stop offset="0" stop-color="#231600"/><stop offset="1" stop-color="#705C5E"/></radialGradient><radialGradient id="f" cx="0" cy="0" r="1" gradientUnits="userSpaceOnUse" gradientTransform="rotate(-115.254 23.96 -3.392) scale(83.8533 1990.08)"><stop/><stop offset="0" stop-color="#231600"/><stop offset="1" stop-color="#705C5E"/></radialGradient><radialGradient id="h" cx="0" cy="0" r="1" gradientUnits="userSpaceOnUse" gradientTransform="matrix(-71.55012 -29.74975 648.67148 -1560.09804 30.5 17.95)"><stop/><stop offset="0" stop-color="#231600"/><stop offset="1" stop-color="#705C5E"/></radialGradient><filter id="c" x="-1" y="-1" width="37" height="44" filterUnits="userSpaceOnUse" color-interpolation-filters="sRGB"><feFlood flood-opacity="0" result="BackgroundImageFix"/><feBlend in="SourceGraphic" in2="BackgroundImageFix" result="shape"/><feColorMatrix in="SourceAlpha" values="0 0 0 0 0 0 0 0 0 0 0 0 0 0 0 0 0 0 127 0" result="hardAlpha"/><feOffset dx="2" dy="2"/><feGaussianBlur stdDeviation="5"/><feComposite in2="hardAlpha" operator="arithmetic" k2="-1" k3="1"/><feColorMatrix values="0 0 0 0 0.362929 0 0 0 0 0.455371 0 0 0 0 0.554189 0 0 0 0.6 0"/><feBlend in2="shape" result="effect1_innerShadow"/><feColorMatrix in="SourceAlpha" values="0 0 0 0 0 0 0 0 0 0 0 0 0 0 0 0 0 0 127 0" result="hardAlpha"/><feOffset dx="-1"/><feGaussianBlur stdDeviation=".5"/><feComposite in2="hardAlpha" operator="arithmetic" k2="-1" k3="1"/><feColorMatrix values="0 0 0 0 1 0 0 0 0 1 0 0 0 0 1 0 0 0 0.2 0"/><feBlend in2="effect1_innerShadow" result="effect2_innerShadow"/></filter><filter id="e" x="15" y="-3" width="21" height="46" filterUnits="userSpaceOnUse" color-interpolation-filters="sRGB"><feFlood flood-opacity="0" result="BackgroundImageFix"/><feBlend in="SourceGraphic" in2="BackgroundImageFix" result="shape"/><feColorMatrix in="SourceAlpha" values="0 0 0 0 0 0 0 0 0 0 0 0 0 0 0 0 0 0 127 0" result="hardAlpha"/><feOffset dx="2" dy="2"/><feGaussianBlur stdDeviation="8"/><feComposite in2="hardAlpha" operator="arithmetic" k2="-1" k3="1"/><feColorMatrix values="0 0 0 0 0.362929 0 0 0 0 0.455371 0 0 0 0 0.554189 0 0 0 0.6 0"/><feBlend in2="shape" result="effect1_innerShadow"/><feColorMatrix in="SourceAlpha" values="0 0 0 0 0 0 0 0 0 0 0 0 0 0 0 0 0 0 127 0" result="hardAlpha"/><feOffset dx="-1" dy="1"/><feGaussianBlur stdDeviation=".5"/><feComposite in2="hardAlpha" operator="arithmetic" k2="-1" k3="1"/><feColorMatrix values="0 0 0 0 1 0 0 0 0 1 0 0 0 0 1 0 0 0 0.2 0"/><feBlend in2="effect1_innerShadow" result="effect2_innerShadow"/><feGaussianBlur stdDeviation="1" result="effect3_foregroundBlur"/></filter><filter id="g" x="-2" y="-2" width="38" height="27.965" filterUnits="userSpaceOnUse" color-interpolation-filters="sRGB"><feFlood flood-opacity="0" result="BackgroundImageFix"/><feBlend in="SourceGraphic" in2="BackgroundImageFix" result="shape"/><feColorMatrix in="SourceAlpha" values="0 0 0 0 0 0 0 0 0 0 0 0 0 0 0 0 0 0 127 0" result="hardAlpha"/><feOffset dx="2" dy="2"/><feGaussianBlur stdDeviation="8"/><feComposite in2="hardAlpha" operator="arithmetic" k2="-1" k3="1"/><feColorMatrix values="0 0 0 0 0.362929 0 0 0 0 0.455371 0 0 0 0 0.554189 0 0 0 0.6 0"/><feBlend in2="shape" result="effect1_innerShadow"/><feColorMatrix in="SourceAlpha" values="0 0 0 0 0 0 0 0 0 0 0 0 0 0 0 0 0 0 127 0" result="hardAlpha"/><feOffset dx="-2"/><feGaussianBlur stdDeviation="1"/><feComposite in2="hardAlpha" operator="arithmetic" k2="-1" k3="1"/><feColorMatrix values="0 0 0 0 1 0 0 0 0 1 0 0 0 0 1 0 0 0 0.2 0"/><feBlend in2="effect1_innerShadow" result="effect2_innerShadow"/><feGaussianBlur stdDeviation=".5" result="effect3_foregroundBlur"/></filter></defs></svg>