<svg width="34" height="57" fill="none" xmlns="http://www.w3.org/2000/svg"><mask id="b" mask-type="alpha" maskUnits="userSpaceOnUse" x="0" y="0" width="34" height="56"><path d="M0 13.977a4 4 0 0 1 1.57-3.178l13-9.94a4 4 0 0 1 4.86 0l13 9.94A4 4 0 0 1 34 13.977v28.046a4 4 0 0 1-1.57 3.178l-13 9.94a4 4 0 0 1-4.86 0l-13-9.94A4 4 0 0 1 0 42.023V13.977z" fill="url(#a)" fill-opacity=".95"/></mask><g mask="url(#b)"><g filter="url(#c)"><path d="M0 12 17-1l17 13v32L17 57 0 44V12z" fill="url(#d)" fill-opacity=".9"/></g><g filter="url(#e)"><path d="M34 43.012V12.988a2 2 0 0 0-.785-1.588L17-1v58l16.215-12.4A2 2 0 0 0 34 43.012z" fill="url(#f)"/></g><g filter="url(#g)"><path d="M17-1 0 12l14.57 11.142a4 4 0 0 0 4.86 0L34 12 17-1z" fill="url(#h)" fill-opacity=".8"/></g></g><defs><radialGradient id="a" cx="0" cy="0" r="1" gradientUnits="userSpaceOnUse" gradientTransform="matrix(-23.20028 -66.4988 2217.88535 -773.782 25.305 42.989)"><stop/><stop offset="0" stop-color="#211602"/><stop offset="1" stop-color="#AC7109"/></radialGradient><radialGradient id="d" cx="0" cy="0" r="1" gradientUnits="userSpaceOnUse" gradientTransform="matrix(-23.20028 -66.4988 2217.88535 -773.782 25.305 42.989)"><stop/><stop offset="0" stop-color="#211602"/><stop offset="1" stop-color="#AC7109"/></radialGradient><radialGradient id="f" cx="0" cy="0" r="1" gradientUnits="userSpaceOnUse" gradientTransform="rotate(-106.704 33.791 12.046) scale(52.0707 812.895)"><stop offset=".063" stop-color="#201502"/><stop offset="1" stop-color="#C7830A"/></radialGradient><radialGradient id="h" cx="0" cy="0" r="1" gradientUnits="userSpaceOnUse" gradientTransform="matrix(-71.55012 -29.74975 648.67148 -1560.09804 30.5 17.95)"><stop/><stop offset="0" stop-color="#211602"/><stop offset="1" stop-color="#AC7109"/></radialGradient><filter id="c" x="-1" y="-1" width="37" height="60" filterUnits="userSpaceOnUse" color-interpolation-filters="sRGB"><feFlood flood-opacity="0" result="BackgroundImageFix"/><feBlend in="SourceGraphic" in2="BackgroundImageFix" result="shape"/><feColorMatrix in="SourceAlpha" values="0 0 0 0 0 0 0 0 0 0 0 0 0 0 0 0 0 0 127 0" result="hardAlpha"/><feOffset dx="2" dy="2"/><feGaussianBlur stdDeviation="5"/><feComposite in2="hardAlpha" operator="arithmetic" k2="-1" k3="1"/><feColorMatrix values="0 0 0 0 0.95 0 0 0 0 0.623 0 0 0 0 0.05 0 0 0 0.2 0"/><feBlend in2="shape" result="effect1_innerShadow"/><feColorMatrix in="SourceAlpha" values="0 0 0 0 0 0 0 0 0 0 0 0 0 0 0 0 0 0 127 0" result="hardAlpha"/><feOffset dx="-1" dy="1"/><feGaussianBlur stdDeviation=".5"/><feComposite in2="hardAlpha" operator="arithmetic" k2="-1" k3="1"/><feColorMatrix values="0 0 0 0 1 0 0 0 0 1 0 0 0 0 1 0 0 0 0.2 0"/><feBlend in2="effect1_innerShadow" result="effect2_innerShadow"/></filter><filter id="e" x="12" y="-6" width="27" height="71" filterUnits="userSpaceOnUse" color-interpolation-filters="sRGB"><feFlood flood-opacity="0" result="BackgroundImageFix"/><feColorMatrix in="SourceAlpha" values="0 0 0 0 0 0 0 0 0 0 0 0 0 0 0 0 0 0 127 0"/><feOffset dy="4"/><feGaussianBlur stdDeviation="2"/><feColorMatrix values="0 0 0 0 0 0 0 0 0 0 0 0 0 0 0 0 0 0 1 0"/><feBlend in2="BackgroundImageFix" result="effect1_dropShadow"/><feBlend in="SourceGraphic" in2="effect1_dropShadow" result="shape"/><feColorMatrix in="SourceAlpha" values="0 0 0 0 0 0 0 0 0 0 0 0 0 0 0 0 0 0 127 0" result="hardAlpha"/><feOffset dx="-2" dy="-1"/><feGaussianBlur stdDeviation=".5"/><feComposite in2="hardAlpha" operator="arithmetic" k2="-1" k3="1"/><feColorMatrix values="0 0 0 0 1 0 0 0 0 1 0 0 0 0 1 0 0 0 0.2 0"/><feBlend in2="shape" result="effect2_innerShadow"/><feGaussianBlur stdDeviation="2.5" result="effect3_foregroundBlur"/></filter><filter id="g" x="-1" y="-2" width="37" height="27.965" filterUnits="userSpaceOnUse" color-interpolation-filters="sRGB"><feFlood flood-opacity="0" result="BackgroundImageFix"/><feBlend in="SourceGraphic" in2="BackgroundImageFix" result="shape"/><feColorMatrix in="SourceAlpha" values="0 0 0 0 0 0 0 0 0 0 0 0 0 0 0 0 0 0 127 0" result="hardAlpha"/><feOffset dx="2" dy="2"/><feGaussianBlur stdDeviation="8"/><feComposite in2="hardAlpha" operator="arithmetic" k2="-1" k3="1"/><feColorMatrix values="0 0 0 0 0.95 0 0 0 0 0.623 0 0 0 0 0.05 0 0 0 0.2 0"/><feBlend in2="shape" result="effect1_innerShadow"/><feColorMatrix in="SourceAlpha" values="0 0 0 0 0 0 0 0 0 0 0 0 0 0 0 0 0 0 127 0" result="hardAlpha"/><feOffset dx="-2"/><feGaussianBlur stdDeviation=".5"/><feComposite in2="hardAlpha" operator="arithmetic" k2="-1" k3="1"/><feColorMatrix values="0 0 0 0 0.922292 0 0 0 0 0.60255 0 0 0 0 0.0485417 0 0 0 0.5 0"/><feBlend in2="effect1_innerShadow" result="effect2_innerShadow"/><feGaussianBlur stdDeviation=".5" result="effect3_foregroundBlur"/></filter></defs></svg>