<svg width="34" height="73" fill="none" xmlns="http://www.w3.org/2000/svg"><mask id="a" mask-type="alpha" maskUnits="userSpaceOnUse" x="0" y="0" width="34" height="72"><path opacity=".92" d="M0 13.977a4 4 0 0 1 1.57-3.178l13-9.94a4 4 0 0 1 4.86 0l13 9.94A4 4 0 0 1 34 13.977v44.046a4 4 0 0 1-1.57 3.178l-13 9.94a4 4 0 0 1-4.86 0l-13-9.94A4 4 0 0 1 0 58.023V13.977z" fill="#261C00"/></mask><g mask="url(#a)"><g filter="url(#b)"><path d="M0 13.977a4 4 0 0 1 1.57-3.178l13-9.94a4 4 0 0 1 4.86 0l13 9.94A4 4 0 0 1 34 13.977v44.046a4 4 0 0 1-1.57 3.178l-13 9.94a4 4 0 0 1-4.86 0l-13-9.94A4 4 0 0 1 0 58.023V13.977z" fill="url(#c)"/></g><g filter="url(#d)"><path d="M34 59.012V12.988a2 2 0 0 0-.785-1.588L17-1v74l16.215-12.4A2 2 0 0 0 34 59.012z" fill="url(#e)" fill-opacity=".4"/></g><g filter="url(#f)"><path d="M14.57.858 0 12l14.57 11.142a4 4 0 0 0 4.86 0L34 12 19.43.858a4 4 0 0 0-4.86 0z" fill="url(#g)" fill-opacity=".8"/></g></g><defs><radialGradient id="c" cx="0" cy="0" r="1" gradientUnits="userSpaceOnUse" gradientTransform="rotate(67.529 -9.481 .387) scale(103.347 27.7985)"><stop stop-color="#FFDD9C"/><stop offset="1" stop-color="#FFD363"/></radialGradient><radialGradient id="e" cx="0" cy="0" r="1" gradientUnits="userSpaceOnUse" gradientTransform="matrix(0 47 -10.7977 0 25 21)"><stop stop-color="#FFB800"/><stop offset="1" stop-color="#FFEF99" stop-opacity=".87"/></radialGradient><radialGradient id="g" cx="0" cy="0" r="1" gradientUnits="userSpaceOnUse" gradientTransform="matrix(-98.00021 -30.4505 663.94575 -2136.8061 30.5 17.95)"><stop stop-color="#FFFAED"/><stop offset="1" stop-color="#FFB800"/></radialGradient><filter id="b" x="-1" y=".036" width="35" height="72.929" filterUnits="userSpaceOnUse" color-interpolation-filters="sRGB"><feFlood flood-opacity="0" result="BackgroundImageFix"/><feBlend in="SourceGraphic" in2="BackgroundImageFix" result="shape"/><feColorMatrix in="SourceAlpha" values="0 0 0 0 0 0 0 0 0 0 0 0 0 0 0 0 0 0 127 0" result="hardAlpha"/><feOffset/><feGaussianBlur stdDeviation="10"/><feComposite in2="hardAlpha" operator="arithmetic" k2="-1" k3="1"/><feColorMatrix values="0 0 0 0 1 0 0 0 0 0.69 0 0 0 0 0.225 0 0 0 0.4 0"/><feBlend in2="shape" result="effect1_innerShadow"/><feColorMatrix in="SourceAlpha" values="0 0 0 0 0 0 0 0 0 0 0 0 0 0 0 0 0 0 127 0" result="hardAlpha"/><feOffset dx="-1" dy="1"/><feGaussianBlur stdDeviation=".5"/><feComposite in2="hardAlpha" operator="arithmetic" k2="-1" k3="1"/><feColorMatrix values="0 0 0 0 1 0 0 0 0 1 0 0 0 0 1 0 0 0 0.5 0"/><feBlend in2="effect1_innerShadow" result="effect2_innerShadow"/></filter><filter id="d" x="15" y="-3" width="21" height="78" filterUnits="userSpaceOnUse" color-interpolation-filters="sRGB"><feFlood flood-opacity="0" result="BackgroundImageFix"/><feBlend in="SourceGraphic" in2="BackgroundImageFix" result="shape"/><feColorMatrix in="SourceAlpha" values="0 0 0 0 0 0 0 0 0 0 0 0 0 0 0 0 0 0 127 0" result="hardAlpha"/><feOffset/><feGaussianBlur stdDeviation="10"/><feComposite in2="hardAlpha" operator="arithmetic" k2="-1" k3="1"/><feColorMatrix values="0 0 0 0 1 0 0 0 0 0.69 0 0 0 0 0.225 0 0 0 0.6 0"/><feBlend in2="shape" result="effect1_innerShadow"/><feColorMatrix in="SourceAlpha" values="0 0 0 0 0 0 0 0 0 0 0 0 0 0 0 0 0 0 127 0" result="hardAlpha"/><feOffset dx="-1" dy="1"/><feGaussianBlur stdDeviation=".5"/><feComposite in2="hardAlpha" operator="arithmetic" k2="-1" k3="1"/><feColorMatrix values="0 0 0 0 1 0 0 0 0 1 0 0 0 0 1 0 0 0 0.5 0"/><feBlend in2="effect1_innerShadow" result="effect2_innerShadow"/><feGaussianBlur stdDeviation="1" result="effect3_foregroundBlur"/></filter><filter id="f" x="-1" y="-.964" width="37" height="26.929" filterUnits="userSpaceOnUse" color-interpolation-filters="sRGB"><feFlood flood-opacity="0" result="BackgroundImageFix"/><feBlend in="SourceGraphic" in2="BackgroundImageFix" result="shape"/><feColorMatrix in="SourceAlpha" values="0 0 0 0 0 0 0 0 0 0 0 0 0 0 0 0 0 0 127 0" result="hardAlpha"/><feOffset dx="2" dy="2"/><feGaussianBlur stdDeviation="8"/><feComposite in2="hardAlpha" operator="arithmetic" k2="-1" k3="1"/><feColorMatrix values="0 0 0 0 1 0 0 0 0 0.72 0 0 0 0 0 0 0 0 0.2 0"/><feBlend in2="shape" result="effect1_innerShadow"/><feColorMatrix in="SourceAlpha" values="0 0 0 0 0 0 0 0 0 0 0 0 0 0 0 0 0 0 127 0" result="hardAlpha"/><feOffset dx="-2"/><feGaussianBlur stdDeviation=".5"/><feComposite in2="hardAlpha" operator="arithmetic" k2="-1" k3="1"/><feColorMatrix values="0 0 0 0 1 0 0 0 0 1 0 0 0 0 1 0 0 0 0.6 0"/><feBlend in2="effect1_innerShadow" result="effect2_innerShadow"/><feGaussianBlur stdDeviation=".5" result="effect3_foregroundBlur"/></filter></defs></svg>