<svg width="34" height="41" fill="none" xmlns="http://www.w3.org/2000/svg"><mask id="a" mask-type="alpha" maskUnits="userSpaceOnUse" x="0" y="0" width="34" height="40"><path opacity=".92" d="M0 13.977a4 4 0 0 1 1.57-3.178l13-9.94a4 4 0 0 1 4.86 0l13 9.94A4 4 0 0 1 34 13.977v12.046a4 4 0 0 1-1.57 3.178l-13 9.94a4 4 0 0 1-4.86 0l-13-9.94A4 4 0 0 1 0 26.023V13.977z" fill="#171100"/></mask><g mask="url(#a)"><g filter="url(#b)"><path d="M0 13.977a4 4 0 0 1 1.57-3.178l13-9.94a4 4 0 0 1 4.86 0l13 9.94A4 4 0 0 1 34 13.977v12.046a4 4 0 0 1-1.57 3.178l-13 9.94a4 4 0 0 1-4.86 0l-13-9.94A4 4 0 0 1 0 26.023V13.977z" fill="url(#c)" fill-opacity=".9"/></g><g filter="url(#d)"><path d="M34 27.012V12.988a2 2 0 0 0-.785-1.588L17-1v42l16.215-12.4A2 2 0 0 0 34 27.012z" fill="url(#e)" fill-opacity=".9"/></g><g filter="url(#f)"><path d="M14.57.858 0 12l14.57 11.142a4 4 0 0 0 4.86 0L34 12 19.43.858a4 4 0 0 0-4.86 0z" fill="url(#g)" fill-opacity=".9"/></g></g><defs><radialGradient id="c" cx="0" cy="0" r="1" gradientUnits="userSpaceOnUse" gradientTransform="rotate(-113.885 20.572 3.933) scale(82.2113 2670.94)"><stop stop-color="#EAE8E8"/><stop offset="1" stop-color="#EEEDEC"/></radialGradient><radialGradient id="e" cx="0" cy="0" r="1" gradientUnits="userSpaceOnUse" gradientTransform="matrix(-46.00003 -44.00008 1044.24445 -1091.70896 37.5 48.5)"><stop stop-color="#E8E6E6"/><stop offset="1" stop-color="#D6D3D1"/></radialGradient><radialGradient id="g" cx="0" cy="0" r="1" gradientUnits="userSpaceOnUse" gradientTransform="matrix(-39.99967 -17.4505 380.49391 -872.16064 30.5 17.95)"><stop stop-color="#F7F7F7"/><stop offset="1" stop-color="#EAE8E8"/></radialGradient><filter id="b" x="-1" y=".036" width="37" height="41.929" filterUnits="userSpaceOnUse" color-interpolation-filters="sRGB"><feFlood flood-opacity="0" result="BackgroundImageFix"/><feBlend in="SourceGraphic" in2="BackgroundImageFix" result="shape"/><feColorMatrix in="SourceAlpha" values="0 0 0 0 0 0 0 0 0 0 0 0 0 0 0 0 0 0 127 0" result="hardAlpha"/><feOffset dx="2" dy="2"/><feGaussianBlur stdDeviation="5"/><feComposite in2="hardAlpha" operator="arithmetic" k2="-1" k3="1"/><feColorMatrix values="0 0 0 0 0.815479 0 0 0 0 0.82293 0 0 0 0 0.904885 0 0 0 0.6 0"/><feBlend in2="shape" result="effect1_innerShadow"/><feColorMatrix in="SourceAlpha" values="0 0 0 0 0 0 0 0 0 0 0 0 0 0 0 0 0 0 127 0" result="hardAlpha"/><feOffset dx="-1"/><feGaussianBlur stdDeviation=".5"/><feComposite in2="hardAlpha" operator="arithmetic" k2="-1" k3="1"/><feColorMatrix values="0 0 0 0 0.97 0 0 0 0 0.97 0 0 0 0 0.97 0 0 0 0.2 0"/><feBlend in2="effect1_innerShadow" result="effect2_innerShadow"/></filter><filter id="d" x="15" y="-3" width="21" height="46" filterUnits="userSpaceOnUse" color-interpolation-filters="sRGB"><feFlood flood-opacity="0" result="BackgroundImageFix"/><feBlend in="SourceGraphic" in2="BackgroundImageFix" result="shape"/><feColorMatrix in="SourceAlpha" values="0 0 0 0 0 0 0 0 0 0 0 0 0 0 0 0 0 0 127 0" result="hardAlpha"/><feOffset dx="2" dy="2"/><feGaussianBlur stdDeviation="8"/><feComposite in2="hardAlpha" operator="arithmetic" k2="-1" k3="1"/><feColorMatrix values="0 0 0 0 0.783083 0 0 0 0 0.767481 0 0 0 0 0.76025 0 0 0 0.3 0"/><feBlend in2="shape" result="effect1_innerShadow"/><feColorMatrix in="SourceAlpha" values="0 0 0 0 0 0 0 0 0 0 0 0 0 0 0 0 0 0 127 0" result="hardAlpha"/><feOffset dx="-1" dy="1"/><feGaussianBlur stdDeviation=".5"/><feComposite in2="hardAlpha" operator="arithmetic" k2="-1" k3="1"/><feColorMatrix values="0 0 0 0 0.97 0 0 0 0 0.97 0 0 0 0 0.97 0 0 0 0.5 0"/><feBlend in2="effect1_innerShadow" result="effect2_innerShadow"/><feGaussianBlur stdDeviation="1" result="effect3_foregroundBlur"/></filter><filter id="f" x="-1" y="-.964" width="37" height="26.929" filterUnits="userSpaceOnUse" color-interpolation-filters="sRGB"><feFlood flood-opacity="0" result="BackgroundImageFix"/><feBlend in="SourceGraphic" in2="BackgroundImageFix" result="shape"/><feColorMatrix in="SourceAlpha" values="0 0 0 0 0 0 0 0 0 0 0 0 0 0 0 0 0 0 127 0" result="hardAlpha"/><feOffset dx="2" dy="2"/><feGaussianBlur stdDeviation="3"/><feComposite in2="hardAlpha" operator="arithmetic" k2="-1" k3="1"/><feColorMatrix values="0 0 0 0 0.858292 0 0 0 0 0.848099 0 0 0 0 0.843375 0 0 0 0.6 0"/><feBlend in2="shape" result="effect1_innerShadow"/><feColorMatrix in="SourceAlpha" values="0 0 0 0 0 0 0 0 0 0 0 0 0 0 0 0 0 0 127 0" result="hardAlpha"/><feOffset dx="-2"/><feGaussianBlur stdDeviation=".5"/><feComposite in2="hardAlpha" operator="arithmetic" k2="-1" k3="1"/><feColorMatrix values="0 0 0 0 0.99 0 0 0 0 0.99 0 0 0 0 0.99 0 0 0 0.8 0"/><feBlend in2="effect1_innerShadow" result="effect2_innerShadow"/><feGaussianBlur stdDeviation=".5" result="effect3_foregroundBlur"/></filter></defs></svg>