<svg width="34" height="34" fill="none" xmlns="http://www.w3.org/2000/svg"><mask id="a" mask-type="alpha" maskUnits="userSpaceOnUse" x="0" y="1" width="34" height="32"><path opacity=".92" d="M0 14.977a4 4 0 0 1 1.57-3.178l13-9.94a4 4 0 0 1 4.86 0l13 9.94A4 4 0 0 1 34 14.977v4.046a4 4 0 0 1-1.57 3.178l-13 9.94a4 4 0 0 1-4.86 0l-13-9.94A4 4 0 0 1 0 19.023v-4.046z" fill="#2B1F00"/></mask><g mask="url(#a)"><g filter="url(#b)"><path d="M0 13.988A2 2 0 0 1 .785 12.4l15-11.471a2 2 0 0 1 2.43 0l15 11.47A2 2 0 0 1 34 13.99v6.023a2 2 0 0 1-.785 1.588l-15 11.471a2 2 0 0 1-2.43 0l-15-11.47A2 2 0 0 1 0 20.01v-6.023z" fill="url(#c)" fill-opacity=".8"/></g><g filter="url(#d)"><path d="M34 20.012v-2.965c0-1.657-1.899-2.595-3.215-1.588l-13 9.94A2 2 0 0 0 17 26.99V34l16.215-12.4A2 2 0 0 0 34 20.012z" fill="url(#e)" fill-opacity=".8"/></g><g filter="url(#f)"><path d="M17 0 0 13l14.57 11.142a4 4 0 0 0 4.86 0L34 13 17 0z" fill="url(#g)" fill-opacity=".9"/></g></g><defs><radialGradient id="c" cx="0" cy="0" r="1" gradientUnits="userSpaceOnUse" gradientTransform="rotate(-161.19 17.345 10.8) scale(51.5342 1142.82)"><stop stop-color="#FAFAFA"/><stop offset="1" stop-color="#FAFAFA"/></radialGradient><radialGradient id="e" cx="0" cy="0" r="1" gradientUnits="userSpaceOnUse" gradientTransform="matrix(-30.50005 -3.49985 5.63615 -49.11719 31.5 21.5)"><stop stop-color="#EAEAEA"/><stop offset="0" stop-color="#E9E9E9"/><stop offset="1" stop-color="#E4E4E4"/></radialGradient><radialGradient id="g" cx="0" cy="0" r="1" gradientUnits="userSpaceOnUse" gradientTransform="matrix(-31.99999 -7.99985 4.66289 -18.65188 35.5 15)"><stop stop-color="#FAFAFA"/><stop offset="1" stop-color="#F8F8F8"/></radialGradient><filter id="b" x="-1" y=".518" width="36" height="33.965" filterUnits="userSpaceOnUse" color-interpolation-filters="sRGB"><feFlood flood-opacity="0" result="BackgroundImageFix"/><feBlend in="SourceGraphic" in2="BackgroundImageFix" result="shape"/><feColorMatrix in="SourceAlpha" values="0 0 0 0 0 0 0 0 0 0 0 0 0 0 0 0 0 0 127 0" result="hardAlpha"/><feOffset dx="1" dy="1"/><feGaussianBlur stdDeviation="8"/><feComposite in2="hardAlpha" operator="arithmetic" k2="-1" k3="1"/><feColorMatrix values="0 0 0 0 0.414167 0 0 0 0 0.414167 0 0 0 0 0.414167 0 0 0 0.2 0"/><feBlend in2="shape" result="effect1_innerShadow"/><feColorMatrix in="SourceAlpha" values="0 0 0 0 0 0 0 0 0 0 0 0 0 0 0 0 0 0 127 0" result="hardAlpha"/><feOffset dx="-1"/><feGaussianBlur stdDeviation="1"/><feComposite in2="hardAlpha" operator="arithmetic" k2="-1" k3="1"/><feColorMatrix values="0 0 0 0 0.98 0 0 0 0 0.98 0 0 0 0 0.98 0 0 0 0.2 0"/><feBlend in2="effect1_innerShadow" result="effect2_innerShadow"/></filter><filter id="d" x="15" y="13.043" width="21" height="22.956" filterUnits="userSpaceOnUse" color-interpolation-filters="sRGB"><feFlood flood-opacity="0" result="BackgroundImageFix"/><feBlend in="SourceGraphic" in2="BackgroundImageFix" result="shape"/><feColorMatrix in="SourceAlpha" values="0 0 0 0 0 0 0 0 0 0 0 0 0 0 0 0 0 0 127 0" result="hardAlpha"/><feOffset dx="-1" dy="1"/><feGaussianBlur stdDeviation=".5"/><feComposite in2="hardAlpha" operator="arithmetic" k2="-1" k3="1"/><feColorMatrix values="0 0 0 0 0.98 0 0 0 0 0.98 0 0 0 0 0.98 0 0 0 0.5 0"/><feBlend in2="shape" result="effect1_innerShadow"/><feGaussianBlur stdDeviation="1" result="effect2_foregroundBlur"/></filter><filter id="f" x="-1" y="-1" width="37" height="27.965" filterUnits="userSpaceOnUse" color-interpolation-filters="sRGB"><feFlood flood-opacity="0" result="BackgroundImageFix"/><feBlend in="SourceGraphic" in2="BackgroundImageFix" result="shape"/><feColorMatrix in="SourceAlpha" values="0 0 0 0 0 0 0 0 0 0 0 0 0 0 0 0 0 0 127 0" result="hardAlpha"/><feOffset dx="2" dy="2"/><feGaussianBlur stdDeviation="10"/><feComposite in2="hardAlpha" operator="arithmetic" k2="-1" k3="1"/><feColorMatrix values="0 0 0 0 0.643333 0 0 0 0 0.643333 0 0 0 0 0.643333 0 0 0 0.2 0"/><feBlend in2="shape" result="effect1_innerShadow"/><feColorMatrix in="SourceAlpha" values="0 0 0 0 0 0 0 0 0 0 0 0 0 0 0 0 0 0 127 0" result="hardAlpha"/><feOffset dx="-2"/><feGaussianBlur stdDeviation=".5"/><feComposite in2="hardAlpha" operator="arithmetic" k2="-1" k3="1"/><feColorMatrix values="0 0 0 0 0.98 0 0 0 0 0.98 0 0 0 0 0.98 0 0 0 0.8 0"/><feBlend in2="effect1_innerShadow" result="effect2_innerShadow"/><feGaussianBlur stdDeviation=".5" result="effect3_foregroundBlur"/></filter></defs></svg>